<?xml version="1.0" encoding="UTF-8" standalone="no"?>
<!DOCTYPE svg PUBLIC "-//W3C//DTD SVG 1.1//EN" "http://www.w3.org/Graphics/SVG/1.1/DTD/svg11.dtd">
<svg width="100%" height="100%" viewBox="0 0 1000 1000" version="1.1" xmlns="http://www.w3.org/2000/svg" xmlns:xlink="http://www.w3.org/1999/xlink" xml:space="preserve" xmlns:serif="http://www.serif.com/" style="fill-rule:evenodd;clip-rule:evenodd;stroke-linecap:round;stroke-linejoin:round;stroke-miterlimit:1.5;">
    <g transform="matrix(3.62,0,0,3.62,499.999999,629.7594)">
        <g transform="matrix(1,0,0,1,-100,-100)">
            <g transform="matrix(4.166667,0,0,4.166667,0,0)">
                <path d="M45.291,23.004C43.302,14.014 40.31,9.216 35.871,7.906C34.938,7.632 33.97,7.495 32.997,7.5C31.712,7.5 30.593,7.813 29.409,8.145C27.982,8.545 26.361,9 23.997,9C21.634,9 20.012,8.546 18.582,8.146C17.398,7.813 16.279,7.5 14.998,7.5C13.992,7.496 12.991,7.632 12.023,7.905C7.607,9.21 4.617,14.006 2.599,22.998C0.43,32.675 1.498,38.785 5.594,40.202C6.155,40.4 6.746,40.502 7.341,40.504C10.147,40.504 12.397,38.167 13.934,36.253C15.672,34.088 17.705,32.989 23.998,32.989C29.618,32.989 31.944,33.751 33.953,36.253C35.215,37.826 36.409,38.927 37.599,39.62C39.183,40.54 40.765,40.745 42.302,40.217C44.722,39.391 46.11,37.208 46.427,33.726C46.668,31.056 46.297,27.549 45.291,23.004ZM19.497,22.499L16.498,22.499L16.498,25.499C16.498,25.897 16.339,26.279 16.058,26.56C15.777,26.841 15.395,26.999 14.998,26.999C14.6,26.999 14.218,26.841 13.937,26.56C13.656,26.279 13.498,25.897 13.498,25.499L13.498,22.499L10.498,22.499C10.1,22.499 9.718,22.341 9.437,22.06C9.156,21.779 8.998,21.397 8.998,20.999C8.998,20.602 9.156,20.22 9.437,19.939C9.718,19.657 10.1,19.499 10.498,19.499L13.498,19.499L13.498,16.499C13.498,16.102 13.656,15.72 13.937,15.439C14.218,15.158 14.6,14.999 14.998,14.999C15.395,14.999 15.777,15.158 16.058,15.439C16.34,15.72 16.498,16.102 16.498,16.499L16.498,19.499L19.497,19.499C19.895,19.499 20.277,19.657 20.558,19.939C20.84,20.22 20.997,20.602 20.997,20.999C20.997,21.397 20.839,21.779 20.558,22.06C20.277,22.341 19.895,22.499 19.497,22.499ZM27.372,22.874C27.002,22.874 26.639,22.764 26.331,22.558C26.022,22.352 25.782,22.059 25.64,21.717C25.498,21.374 25.461,20.997 25.534,20.634C25.606,20.27 25.784,19.936 26.047,19.674C26.309,19.411 26.643,19.233 27.007,19.16C27.37,19.088 27.747,19.125 28.09,19.267C28.433,19.409 28.725,19.649 28.931,19.958C29.137,20.266 29.247,20.629 29.247,20.999C29.247,21.497 29.05,21.974 28.698,22.325C28.347,22.677 27.87,22.874 27.372,22.874ZM31.497,26.999C31.126,26.999 30.764,26.889 30.455,26.683C30.147,26.477 29.906,26.184 29.765,25.841C29.623,25.498 29.586,25.121 29.659,24.757C29.732,24.393 29.91,24.059 30.173,23.797C30.436,23.535 30.77,23.357 31.134,23.285C31.498,23.213 31.876,23.251 32.218,23.393C32.561,23.536 32.853,23.777 33.059,24.086C33.264,24.395 33.373,24.758 33.372,25.129C33.371,25.625 33.173,26.101 32.821,26.452C32.47,26.802 31.994,26.999 31.497,26.999ZM31.497,18.749C31.127,18.749 30.764,18.639 30.456,18.433C30.147,18.227 29.907,17.935 29.765,17.592C29.623,17.249 29.586,16.872 29.658,16.509C29.731,16.145 29.909,15.811 30.172,15.549C30.434,15.286 30.768,15.108 31.132,15.035C31.495,14.963 31.872,15 32.215,15.142C32.558,15.284 32.85,15.524 33.056,15.833C33.262,16.141 33.372,16.504 33.372,16.874C33.372,17.372 33.175,17.849 32.823,18.2C32.472,18.552 31.995,18.749 31.497,18.749ZM35.622,22.874C35.251,22.874 34.889,22.764 34.581,22.558C34.272,22.352 34.032,22.059 33.89,21.717C33.748,21.374 33.711,20.997 33.783,20.634C33.856,20.27 34.034,19.936 34.296,19.674C34.559,19.411 34.893,19.233 35.256,19.16C35.62,19.088 35.997,19.125 36.34,19.267C36.682,19.409 36.975,19.649 37.181,19.958C37.387,20.266 37.497,20.629 37.497,20.999C37.497,21.497 37.3,21.974 36.948,22.325C36.597,22.677 36.12,22.874 35.622,22.874Z" style="fill-rule:nonzero;"/>
            </g>
        </g>
    </g>
    <g transform="matrix(1,0,0,1,9,80)">
        <path d="M896,91.521L896,591.479C896,607.22 883.22,620 867.479,620L114.521,620C98.78,620 86,607.22 86,591.479L86,91.521C86,75.78 98.78,63 114.521,63L867.479,63C883.22,63 896,75.78 896,91.521Z" style="fill:rgb(235,235,235);fill-opacity:0;stroke:black;stroke-width:50px;"/>
    </g>
</svg>
